# xmcd
#
# Track frame offsets: 
#        183
#        13458
#        34870
#        51858
#        70795
#        85533
#        102408
#        117370
#        138108
#        160083
#
# Disc length: 2347 seconds
#
# Revision: 0
# Processed by: cddbd v1.5PL3 Copyright (c) Steve Scherf et al.
# Submitted via: ExactAudioCopy v0.95a4
#
DISCID=7e09290a
DTITLE=Sonny Boy Williamsson - The Blues Of Sonny Boy Williamsson
DYEAR=1963
DGENRE=Blues
TTITLE0=Why Are You Crying
TTITLE1=Girl Friends
TTITLE2=Movin' Down The River Rhine
TTITLE3=I'm So Glad (I made it overhere in time)
TTITLE4=Chicago Bounce
TTITLE5=Movin' Out
TTITLE6=Once Upon A Time
TTITLE7=When The Lights Went Out
TTITLE8=Same Girl
TTITLE9=On My Way Back Home
EXTD=
EXTT0=
EXTT1=
EXTT2=
EXTT3=
EXTT4=
EXTT5=
EXTT6=
EXTT7=
EXTT8=
EXTT9=
PLAYORDER=
